HIERARCHY
ROOT hip
{
	OFFSET 0.000000 0.000000 0.000000 
	CHANNELS 6 Xposition Yposition Zposition Xrotation Zrotation Yrotation
	JOINT abdomen
	{
		OFFSET 0.000000 3.402643 0.000000 
		CHANNELS 3 Xrotation Zrotation Yrotation
		JOINT chest
		{
			OFFSET 0.000000 8.438565 -0.680529 
			CHANNELS 3 Xrotation Zrotation Yrotation
			JOINT neck
			{
				OFFSET 0.000000 10.207942 -0.272212 
				CHANNELS 3 Xrotation Zrotation Yrotation
				JOINT head
				{
					OFFSET 0.000000 3.130431 0.000000 
					CHANNELS 3 Xrotation Zrotation Yrotation
					End Site
					{
						OFFSET 0.000000 3.130435 0.000000 
					}
				}
			}
			JOINT lCollar
			{
				OFFSET 3.470700 6.669187 -0.816635 
				CHANNELS 3 Yrotation Zrotation Xrotation
				JOINT lShldr
				{
					OFFSET 3.198488 0.000000 0.000000 
					CHANNELS 3 Zrotation Yrotation Xrotation
					JOINT lForeArm
					{
						OFFSET 10.139888 0.000000 0.000000 
						CHANNELS 3 Yrotation Zrotation Xrotation
						JOINT lHand
						{
							OFFSET 8.370511 0.000000 0.000000 
							CHANNELS 3 Zrotation Yrotation Xrotation
							End Site
							{
								OFFSET 4.083176 0.000000 0.000000 
							}
						}
					}
				}
			}
			JOINT rCollar
			{
				OFFSET -3.470700 6.669187 -0.816635 
				CHANNELS 3 Yrotation Zrotation Xrotation
				JOINT rShldr
				{
					OFFSET -3.198488 0.000000 0.000000 
					CHANNELS 3 Zrotation Yrotation Xrotation
					JOINT rForeArm
					{
						OFFSET -10.139888 0.000000 0.000000 
						CHANNELS 3 Yrotation Zrotation Xrotation
						JOINT rHand
						{
							OFFSET -8.370511 0.000000 0.000000 
							CHANNELS 3 Zrotation Yrotation Xrotation
							End Site
							{
								OFFSET -4.083176 0.000000 0.000000 
							}
						}
					}
				}
			}
		}
	}
	JOINT lThigh
	{
		OFFSET 5.308129 -1.633274 1.361059 
		CHANNELS 3 Xrotation Zrotation Yrotation
		JOINT lShin
		{
			OFFSET -2.041588 -20.007561 0.000000 
			CHANNELS 3 Xrotation Zrotation Yrotation
			JOINT lFoot
			{
				OFFSET 0.000000 -19.190928 -1.224953 
				CHANNELS 3 Xrotation Yrotation Zrotation
				End Site
				{
					OFFSET 0.000000 -2.449906 4.627600 
				}
			}
		}
	}
	JOINT rThigh
	{
		OFFSET -5.308129 -1.633274 1.361059 
		CHANNELS 3 Xrotation Zrotation Yrotation
		JOINT rShin
		{
			OFFSET 2.041588 -20.007561 0.000000 
			CHANNELS 3 Xrotation Zrotation Yrotation
			JOINT rFoot
			{
				OFFSET 0.000000 -19.190928 -1.224953 
				CHANNELS 3 Xrotation Yrotation Zrotation
				End Site
				{
					OFFSET 0.000000 -2.449906 4.627600 
				}
			}
		}
	}
}
MOTION
Frames: 10
Frame Time: 0.033333
-0.237924 52.797928 -0.788018 1.406250 0.683594 -22.490118 29.632202 -10.925594 -3.098388 -16.494141 1.943359 7.051114 51.063168 8.107644 2.471410 -30.556641 4.648437 -12.246095 2.000000 -2.000000 0.000000 -83.828125 -8.740234 7.792969 -50.050072 -1.993082 -2.022037 -25.475994 41.258606 -32.478947 -2.000000 2.000000 0.000000 77.197266 -20.419924 -37.734379 125.170906 -1.858459 -3.076968 -49.253582 -62.009579 30.868807 9.722508 10.164457 24.338068 5.027630 -5.031639 -0.340360 -3.425866 1.442821 -9.143647 -2.597326 -10.671276 -3.367314 12.265023 5.058342 1.063896 -0.836723 -2.124848 7.012384 
-0.458144 52.797928 -1.662448 2.275391 0.869141 -23.876804 31.700563 -10.628040 -5.058338 -16.474609 2.119141 6.572628 51.063168 8.107644 2.471410 -30.947266 4.355469 -10.830078 2.000000 -2.000000 0.000000 -81.796875 -11.406250 9.287109 -50.929794 -1.985038 -2.051841 -28.390291 39.496044 -35.259136 -2.000000 2.000000 0.000000 78.994141 -23.447264 -40.013649 128.699539 -1.988428 -2.859923 -50.455887 -63.020073 35.314693 8.296794 10.564224 24.993912 5.060021 -4.838889 -0.601836 -3.124346 2.618122 -10.051764 -4.958492 -9.886953 -2.330100 12.776056 5.085000 0.602894 -0.470634 -1.317542 5.928061 
-0.694881 52.790047 -2.596267 3.339844 1.044922 -25.263672 33.722595 -10.161578 -6.967866 -16.474609 2.460938 5.947685 51.063168 8.107644 2.471410 -31.416016 3.398438 -8.915438 2.000000 -2.000000 0.000000 -80.693359 -13.652344 9.685197 -51.644981 -2.156456 -2.139631 -30.780039 38.007263 -37.725807 -2.000000 2.000000 0.000000 80.537109 -26.386721 -41.859810 131.506149 -2.088042 -2.660354 -48.870800 -64.918144 38.009438 6.810485 11.382596 25.644108 5.040850 -4.831060 -0.580566 -2.969127 3.729069 -10.811985 -7.318532 -8.869572 -2.203421 12.954206 5.046631 1.110459 -0.036358 -0.776921 4.625216 
-0.982158 52.774288 -3.544935 4.218750 1.386719 -26.620859 35.928097 -9.716121 -9.160570 -16.474609 2.626953 5.459433 51.063168 8.107644 2.471410 -31.621096 1.416016 -6.279297 2.000000 -2.000000 0.000000 -81.269531 -14.736328 9.912108 -51.810081 -1.958633 -2.102274 -34.520844 36.609821 -42.021732 -2.000000 2.000000 0.000000 82.109375 -28.798826 -44.111328 133.621185 -2.125779 -2.516229 -40.648621 -67.787849 35.506836 5.355509 12.172721 27.001076 5.400564 -4.830016 -0.629001 -3.155435 4.066519 -11.446159 -9.227839 -7.519014 -0.909744 13.309753 5.048449 1.129971 0.324835 -0.766708 3.999981 
-1.318844 52.711266 -4.475546 5.087891 1.572266 -28.173561 37.885456 -9.266438 -10.951739 -16.464844 2.968750 4.833985 51.063168 8.107644 2.471410 -32.207031 -1.210938 -3.144531 2.000000 -2.000000 0.000000 -83.369141 -15.634766 9.655571 -51.821293 -2.157592 -2.159122 -37.538113 35.293884 -46.315083 -2.000000 2.000000 0.000000 83.378906 -30.566408 -46.308594 134.855316 -2.166600 -2.655130 -25.658720 -70.523346 27.162611 3.698411 13.181166 28.672260 6.267785 -4.808198 -0.687309 -3.265660 4.368100 -11.027245 -11.409650 -6.227167 0.440222 12.953464 4.636388 1.237059 0.494752 -0.508989 4.199443 
-1.660002 52.616730 -5.366515 6.152344 1.728516 -29.541019 39.786343 -8.669550 -12.642831 -16.445313 3.310547 4.384766 51.063168 8.107644 2.471410 -33.642578 -3.945312 0.234375 2.000000 -2.000000 0.000000 -85.615234 -16.562502 9.381981 -51.292889 -2.155319 -2.120139 -40.943932 33.052452 -51.482182 -2.000000 2.000000 0.000000 83.613281 -32.500000 -46.470089 134.855606 -2.156286 -2.664311 -7.328524 -72.923866 14.506668 1.901564 14.430180 30.510414 7.321998 -4.769943 -0.799203 -3.299508 4.190471 -10.730272 -13.165180 -5.114368 2.304712 12.264277 5.174893 1.269019 1.368234 -0.934157 4.399973 
-2.006391 52.561588 -6.194889 7.011719 2.089844 -30.859375 41.490326 -8.265626 -14.299581 -16.269531 3.476563 4.072858 51.063168 8.107644 2.471410 -36.083984 -6.347655 3.935547 2.000000 -2.000000 0.000000 -88.330078 -18.466797 9.596516 -49.874004 -2.002262 -2.011722 -44.961250 30.239748 -57.276699 -2.000000 2.000000 0.000000 82.373047 -34.863285 -43.544922 133.450592 -2.095528 -2.699902 13.323095 -74.710197 -0.862203 0.643992 15.663342 32.537445 8.209230 -4.955338 -0.889712 -3.317723 4.400390 -10.390326 -14.988707 -3.671266 4.629436 11.731653 5.199479 1.246467 1.852960 -1.823096 4.782496 
-2.347214 52.482807 -6.943532 7.900391 2.431641 -32.353096 42.791588 -7.793086 -15.415131 -16.269531 3.652344 3.594372 51.063168 8.107644 2.471410 -38.857426 -8.408203 7.617188 2.000000 -2.000000 0.000000 -91.259766 -20.449217 10.357919 -48.124012 -2.047025 -1.940313 -48.164944 26.755081 -63.008297 -2.000000 2.000000 0.000000 79.892578 -37.050785 -38.931664 130.995789 -2.005104 -2.909781 38.580254 -75.067078 -21.219341 -0.987025 16.903742 34.496204 9.255066 -4.761094 -0.982148 -3.486527 4.114563 -9.956732 -16.516916 -2.109697 6.916837 11.545550 5.065073 1.180855 2.420510 -2.490255 5.105577 
-2.652916 52.364635 -7.582735 8.945313 2.587891 -33.700726 43.888931 -7.580370 -16.054049 -16.269531 3.818360 3.457681 51.063168 8.107644 2.471410 -41.630859 -10.332030 10.820313 2.000000 -2.000000 0.000000 -94.892578 -21.962893 10.914316 -46.188213 -2.091216 -1.859498 -48.895958 23.992046 -67.881187 -2.000000 2.000000 0.000000 77.285156 -39.394531 -33.378902 128.356567 -1.903510 -2.806108 57.866638 -73.150238 -36.795174 -1.953510 17.841599 36.489975 9.948236 -4.702953 -1.014011 -3.469766 3.598287 -9.820654 -17.848495 -0.956969 8.839658 10.847797 5.250621 1.146644 2.917668 -3.358063 5.487595 
-2.935984 52.270096 -8.129011 9.833984 2.919922 -35.000000 44.972961 -7.460924 -16.552334 -16.093752 3.818360 3.291016 51.063168 8.107644 2.471410 -44.589848 -11.904296 13.759766 2.000000 -2.000000 0.000000 -98.525391 -23.642578 10.005849 -43.547722 -2.004677 -1.717879 -45.854126 22.672070 -71.949974 -2.000000 2.000000 0.000000 73.955078 -41.748047 -27.568359 126.066483 -1.621497 -2.945930 65.552948 -71.663918 -43.246330 -3.077130 18.885750 38.254417 10.670615 -4.742341 -1.113285 -3.347280 3.519015 -9.303721 -19.027058 0.535328 10.519975 10.489452 5.269517 1.137959 3.074649 -3.541211 5.591062 
